<?xml version="1.0" standalone="no"?><!DOCTYPE svg PUBLIC "-//W3C//DTD SVG 1.1//EN" "http://www.w3.org/Graphics/SVG/1.1/DTD/svg11.dtd"><svg t="1683084121669" class="icon" viewBox="0 0 1030 1024" version="1.1" xmlns="http://www.w3.org/2000/svg" p-id="9876" data-spm-anchor-id="a313x.7781069.0.i8" xmlns:xlink="http://www.w3.org/1999/xlink" width="201.171875" height="200"><path d="M964.780108 381.100427l-127.948151 127.948151c-31.42866 31.42866-58.613654 22.175552-65.09083-0.542424-7.753466-27.184994 31.460568-56.061073 31.460568-56.061073l116.461534-116.49344a159.536347 159.536347 0 1 0-225.616303-225.584396l-225.616302 225.584396a159.536347 159.536347 0 0 0 0 225.648209 157.972891 157.972891 0 0 0 36.055214 26.227776s39.118312 20.931169 11.997133 48.307606c-21.314056 21.537407-63.814539 0-63.814539 0 0.606238-0.35098-7.402487-7.466301-29.354688-29.418502a223.350886 223.350886 0 0 1 0-315.881969l225.616303-225.616302a223.350886 223.350886 0 0 1 315.850061 315.881968z m-638.14539 541.147291l243.516281-206.152869a157.430468 157.430468 0 0 0-15.028324-253.981865s-37.299598-24.089988-7.976818-49.137195c23.037049-19.654878 63.591188 5.296607 63.591188 5.296607-0.638145 0.287165 6.732434 8.040632 26.834014 31.907269a223.350886 223.350886 0 0 1-26.163961 314.797121l-243.548188 206.152868A223.350886 223.350886 0 0 1 79.257657 630.168573l138.094663-116.908236c33.917427-28.716543 60.240925-17.229926 64.835571 5.934752 5.519958 27.599788-35.959493 53.125604-35.959492 53.125604l-125.714642 106.442651a159.536347 159.536347 0 1 0 206.152868 243.484374z" fill="#6EA3E5" p-id="9877"></path></svg>